<svg width="33" height="32" viewBox="0 0 33 32" fill="none" xmlns="http://www.w3.org/2000/svg">
<g clip-path="url(#clip0_296_24288)">
<path d="M24.2578 8.33953H23.2396C23.0942 6.64256 22.4154 5.13953 21.2033 4.07286C19.9427 2.90923 18.2942 2.27892 16.5487 2.27892H16.4518C14.7548 2.27892 13.1063 2.90923 11.7972 4.07286C10.5851 5.13953 9.90631 6.69105 9.76086 8.33953H8.74268C8.88813 6.35165 9.71237 4.55771 11.1184 3.29711C12.573 1.98801 14.4639 1.26074 16.4518 1.26074H16.5487C18.5366 1.26074 20.4275 1.98801 21.8821 3.29711C23.2881 4.55771 24.1124 6.35165 24.2578 8.33953Z" fill="black"/>
<path d="M19.2152 16.2912H13.7849C13.494 16.2912 13.2516 16.5337 13.2516 16.8246V19.7822C13.2516 20.0731 13.494 20.3155 13.7849 20.3155H19.1667C19.4576 20.3155 19.7001 20.0731 19.7001 19.7822V16.8246C19.7001 16.5337 19.4576 16.2912 19.2152 16.2912ZM19.2152 16.2912H13.7849C13.494 16.2912 13.2516 16.5337 13.2516 16.8246V19.7822C13.2516 20.0731 13.494 20.3155 13.7849 20.3155H19.1667C19.4576 20.3155 19.7001 20.0731 19.7001 19.7822V16.8246C19.7001 16.5337 19.4576 16.2912 19.2152 16.2912ZM19.2152 16.2912H13.7849C13.494 16.2912 13.2516 16.5337 13.2516 16.8246V19.7822C13.2516 20.0731 13.494 20.3155 13.7849 20.3155H19.1667C19.4576 20.3155 19.7001 20.0731 19.7001 19.7822V16.8246C19.7001 16.5337 19.4576 16.2912 19.2152 16.2912ZM19.2152 16.2912H13.7849C13.494 16.2912 13.2516 16.5337 13.2516 16.8246V19.7822C13.2516 20.0731 13.494 20.3155 13.7849 20.3155H19.1667C19.4576 20.3155 19.7001 20.0731 19.7001 19.7822V16.8246C19.7001 16.5337 19.4576 16.2912 19.2152 16.2912ZM31.9183 25.4064L29.6395 15.7094C29.4455 16.1458 29.2031 16.5822 28.9122 16.97C27.894 18.2791 26.3425 19.0064 24.694 19.0064H21.8334C21.5425 19.0064 21.3001 18.764 21.3001 18.4731C21.3001 18.1822 21.5425 17.9397 21.8334 17.9397H24.694C26.0516 17.9397 27.2637 17.3579 28.0879 16.2912C28.9122 15.2246 29.2031 13.9155 28.9122 12.6064L28.4273 10.6185C28.2334 9.89124 27.6031 9.35791 26.8273 9.35791H6.17279C5.39704 9.35791 4.76673 9.89124 4.57279 10.6185L4.13643 12.6064C3.84552 13.9155 4.13643 15.2731 4.96067 16.2912C5.78491 17.3579 7.04552 17.9397 8.35461 17.9397H11.2152C11.5061 17.9397 11.7486 18.1822 11.7486 18.4731C11.7486 18.764 11.5061 19.0064 11.2152 19.0064H8.35461C6.70613 19.0064 5.15461 18.2791 4.13643 16.97C3.84552 16.5822 3.6031 16.1458 3.40916 15.7094L1.13037 25.4064C0.839459 26.7155 1.13037 28.0731 1.95461 29.0912C2.77885 30.1579 4.03946 30.7397 5.34855 30.7397H27.6516C29.0092 30.7397 30.2213 30.1579 31.0455 29.0912C31.9183 28.0246 32.2092 26.7155 31.9183 25.4064ZM20.7667 19.7822C20.7667 20.6549 20.0879 21.3337 19.2152 21.3337H13.7849C12.9122 21.3337 12.2334 20.6549 12.2334 19.7822V16.8246C12.2334 15.9519 12.9122 15.2731 13.7849 15.2731H19.1667C20.0395 15.2731 20.7183 15.9519 20.7183 16.8246L20.7667 19.7822ZM19.2152 16.2912H13.7849C13.494 16.2912 13.2516 16.5337 13.2516 16.8246V19.7822C13.2516 20.0731 13.494 20.3155 13.7849 20.3155H19.1667C19.4576 20.3155 19.7001 20.0731 19.7001 19.7822V16.8246C19.7001 16.5337 19.4576 16.2912 19.2152 16.2912ZM19.2152 16.2912H13.7849C13.494 16.2912 13.2516 16.5337 13.2516 16.8246V19.7822C13.2516 20.0731 13.494 20.3155 13.7849 20.3155H19.1667C19.4576 20.3155 19.7001 20.0731 19.7001 19.7822V16.8246C19.7001 16.5337 19.4576 16.2912 19.2152 16.2912ZM19.2152 16.2912H13.7849C13.494 16.2912 13.2516 16.5337 13.2516 16.8246V19.7822C13.2516 20.0731 13.494 20.3155 13.7849 20.3155H19.1667C19.4576 20.3155 19.7001 20.0731 19.7001 19.7822V16.8246C19.7001 16.5337 19.4576 16.2912 19.2152 16.2912Z" fill="black"/>
</g>
<defs>
<clipPath id="clip0_296_24288">
<rect width="32" height="32" fill="white" transform="translate(0.5)"/>
</clipPath>
</defs>
</svg>
