<svg width="33" height="32" viewBox="0 0 33 32" fill="none" xmlns="http://www.w3.org/2000/svg">
<path d="M13.5 17H18.504V13H8.042L9.558 9.606C9.717 9.238 10.078 9 10.478 9H16.648C16.455 7.989 16.452 7.032 16.652 6H10.478C8.876 6 7.433 6.952 6.802 8.424L4.634 13.484C3.371 14.157 2.5 15.472 2.5 17V19C2.5 20.474 3.31 21.75 4.5 22.444V26C4.5 27.103 5.397 28 6.5 28H9.5C10.603 28 11.5 27.103 11.5 26V23H18.504V19H13.5C12.948 19 12.5 18.552 12.5 18C12.5 17.448 12.948 17 13.5 17ZM8 20.5C6.619 20.5 5.5 19.381 5.5 18C5.5 16.619 6.619 15.5 8 15.5C9.381 15.5 10.5 16.619 10.5 18C10.5 19.381 9.381 20.5 8 20.5Z" fill="black"/>
<path d="M30.4218 6.47694C30.0088 4.10994 28.0228 2.41694 26.8848 2.07194C26.6928 2.01394 26.5038 2.16594 26.5038 2.36594V7.38294C26.5038 7.76194 26.2898 8.10794 25.9508 8.27694L24.9508 8.77694C24.6688 8.91794 24.3378 8.91794 24.0568 8.77694L23.0568 8.27694C22.7178 8.10794 22.5038 7.76094 22.5038 7.38294V2.36594C22.5038 2.16494 22.3138 2.01294 22.1208 2.07194C20.9818 2.42494 18.9968 4.14394 18.5868 6.49094C18.2348 8.50694 18.9908 10.4839 20.1838 11.6779C20.3798 11.8739 20.5028 12.1269 20.5028 12.4039V26.0009C20.5028 28.2089 22.2928 29.9989 24.5008 29.9989C26.7088 29.9989 28.4988 28.2089 28.4988 26.0009L28.5018 12.4089C28.5018 12.1289 28.6288 11.8709 28.8268 11.6719C30.0278 10.4719 30.7728 8.48594 30.4218 6.47694ZM24.5088 27.4999C23.6808 27.4999 23.0088 26.8279 23.0088 25.9999C23.0088 25.1719 23.6808 24.4999 24.5088 24.4999C25.3368 24.4999 26.0088 25.1719 26.0088 25.9999C26.0088 26.8279 25.3368 27.4999 24.5088 27.4999Z" fill="black"/>
</svg>
