<svg width="33" height="32" viewBox="0 0 33 32" fill="none" xmlns="http://www.w3.org/2000/svg">
<path d="M30.9757 14.0117C30.7885 13.6999 28.9415 12.902 28.9415 12.902C29.2628 12.7361 29.4823 12.7018 29.4823 12.0156C29.4823 11.2671 29.4786 11.0176 28.9796 11.0176H27.2866C27.2798 11.0026 27.2723 10.987 27.2654 10.9714C26.1726 8.58485 26.026 7.98165 24.396 7.16949C22.2097 6.08224 18.1108 6.02734 16.5039 6.02734C14.8971 6.02734 10.7982 6.08224 8.61372
 7.16949C6.98191 7.9804 7.02246 8.39771 
 5.74435 10.9714C5.74435 10.9783 5.73125 10.9964 5.7194 
 11.0176H4.02459C3.5293 11.0176 3.52556 11.2671 3.52556 
 12.0156C3.52556 12.7018 3.74513 12.7361 4.06638 12.902C4.06638 
 12.902 2.28174 13.7622 2.03223 14.0117C1.78272 14.2613 1.5332 16.0078 1.5332 19.002C1.5332 21.9962 1.78272 24.9903 
 1.78272 24.9903H2.52751C2.52751 25.8636 2.65601 25.9884 3.03028 25.9884H8.02051C8.39478 25.9884 8.51953 25.8636 8.51953 24.9903H24.4883C24.4883 25.8636 24.6131
  25.9884 24.9874 25.9884H30.1024C30.3519 25.9884 30.4766 25.8012 30.4766 24.9903H31.2252C31.2252 24.9903
   31.4747 21.9338 31.4747 19.002C31.4747 16.0702 31.1628 14.3236 30.9757 14.0117ZM8.34862 16.815C7.21259 
   16.9392 6.07067 17.003 4.92782 17.0059C3.65406 17.0059 3.6104 17.0876 3.52057 16.2923C3.48678 15.9283 3.49747 15.5615
    3.55238 15.2001L3.59168 15.0098H3.77882C4.52736 15.0098 
    5.23036 15.0416 6.55776 15.4327C7.23292 15.6353 7.86793 
    15.9531 8.4347 16.3721C8.70667 16.5693 8.76905 16.7564 8.76905 16.7564L8.34862 16.815ZM23.766 21.3062L23.4903 21.9962H9.51758C9.51758 21.9962 9.54191 21.9581 9.20569 21.2988C8.95618 20.811 9.26807 20.4991 9.76148 20.3219C10.7171 19.9776 13.5098 19.002 16.5039 19.002C19.4981 19.002 22.3463 19.8429 23.272 20.3219C23.615 20.4991 24.0411 20.6238 23.766 21.31V21.3062ZM7.73482 12.7898C7.53333 12.8014 7.33142 12.8029 7.12975 
    12.7941C7.29255 12.5047 7.383 12.1822 7.54207 11.8454C8.04109 10.7849 8.61185 9.58477 9.62799 9.07888C11.0964 8.34781 14.1398 8.01845 16.5039 8.01845C18.8681 8.01845 21.9115 8.34532 23.3799 9.07888C24.396 9.58477 24.9643 10.7856 25.4658 11.8454C25.6261 12.1853 25.7153 12.5103 25.8825 12.8016C25.7577 12.8085 25.6143 12.8016 25.2718 12.7898H7.73482ZM29.425 16.2898C29.2915 17.0683 29.4162 17.0059 
    28.0801 17.0059C26.9372 17.003 25.7954 16.9392 24.6593 16.815C24.4815 16.7832 24.431 16.4832 24.5732 16.3721C25.1371 15.9485 25.773 15.630
    2 26.4501 15.4327C27.7775 15.0416 28.5248 14.9892 29.2628 15.0154C29.3124 15.0173 29.3595 15.0375 29.3951 15.072C29.4306 15.1065 29.4522 15.1531 29.4555 15.2025C29.4908 15.5656 29.4805 15.9317 29.425 16.2923V16.2898Z" fill="black"/>
</svg>
