<svg width="33" height="32" viewBox="0 0 33 32" fill="none" xmlns="http://www.w3.org/2000/svg">
<g clip-path="url(#clip0_298_23472)">
<path d="M29.0314 17.1423H28.6127C26.7505 17.1423 24.9329 16.5399 23.4409 15.4376L21.1119 17.7666L19.7854 16.4401L21.9824 14.2431L20.8859 13.3305L18.463 15.7534L17.1365 14.4269L19.438 12.1254L18.3414 11.2128L15.8141 13.7402L14.4876 12.4137L16.8936 10.0077L14.763 8.23443C14.4947 8.01112 14.1548 7.88818 13.8057 7.88818C12.9806 7.88818 12.3093 8.55943 12.3093 9.38456V10.1992C12.3093 12.8852 10.1241 15.0705 7.43806 15.0705C5.55275 15.0705 3.81975 13.9664 3.02306 12.2576L2.79375 11.7659C2.59694 11.3437 2.16887 11.0709 1.70312 11.0709C1.03975 11.0709 0.5 11.6107 0.5 12.2742V20.2949H32.5C32.3321 18.5287 30.8408 17.1423 29.0314 17.1423Z" fill="black"/>
<path d="M0.861816 22.1709C1.43213 23.32 2.6175 24.1121 3.985 24.1121H29.0315C30.399 24.1121 31.5844 23.3201 32.1547 22.1709H0.861816Z" fill="black"/>
</g>
<defs>
<clipPath id="clip0_298_23472">
<rect width="32" height="32" fill="white" transform="translate(0.5)"/>
</clipPath>
</defs>
</svg>
