<svg width="32.000000" height="32.000000" viewBox="0 0 32 32" fill="none" xmlns="http://www.w3.org/2000/svg" xmlns:xlink="http://www.w3.org/1999/xlink">
	<desc>
			Created with Pixso.
	</desc>
	<defs>
		<clipPath id="clip45_10389">
			<rect id="Property 1=Обувь" width="32.000000" height="32.000000" fill="white" fill-opacity="0"/>
		</clipPath>
	</defs>
	<rect id="Property 1=Обувь" width="32.000000" height="32.000000" fill="#FFFFFF" fill-opacity="0"/>
	<g clip-path="url(#clip45_10389)">
		<path id="Vector" d="M28.53 17.14L28.11 17.14C26.25 17.14 24.43 16.54 22.94 15.43L20.61 17.76L19.28 16.44L21.48 14.24L20.38 13.33L17.96 15.75L16.63 14.42L18.93 12.12L17.84 11.21L15.31 13.74L13.98 12.41L16.39 10L14.26 8.23C13.99 8.01 13.65 7.88 13.3 7.88C12.48 7.88 11.8 8.56 11.8 9.38L11.8 10.19C11.8 12.88 9.62 15.07 6.93 15.07C5.05 15.07 3.31 13.96 2.52 12.25L2.29 11.76C2.09 11.34 1.66 11.07 1.2 11.07C0.54 11.07 0 11.61 0 12.27L0 20.29L32 20.29C31.83 18.52 30.34 17.14 28.53 17.14Z" fill="black" fill-opacity="1.000000" fill-rule="nonzero"/>
		<path id="Vector" d="M0.36 22.16C0.93 23.31 2.11 24.11 3.48 24.11L28.53 24.11C29.89 24.11 31.08 23.31 31.65 22.16L0.36 22.16Z" fill="black" fill-opacity="1.000000" fill-rule="nonzero"/>
	</g>
</svg>
