<svg width="39" height="38" viewBox="0 0 39 38" fill="none" xmlns="http://www.w3.org/2000/svg">
<g clip-path="url(#clip0_296_23970)">
<path d="M37.3854 37.1458C36.2976 36.3123 35.1208 35.6017 33.8765 35.0274L29.4283 32.9736C29.2083 33.6007 28.6331 35.0039 27.4963 36.4149C27.0159 37.0113 26.4917 37.5398 25.9287 37.9999H38.4998L37.3854 37.1458Z" fill="black"/>
<path d="M11.5035 36.4149C10.3667 35.0039 9.79155 33.6007 9.5715 32.9736L5.12331 35.0274C3.87898 35.6017 2.70221 36.3123 1.61444 37.1458L0.5 37.9999H13.0711C12.5084 37.5398 11.9839 37.0116 11.5035 36.4149Z" fill="black"/>
<path d="M26.7472 31.0229V30.7695C24.7853 32.4189 22.2566 33.4139 19.4998 33.4139C16.743 33.4139 14.2143 32.4189 12.2528 30.7695V31.0229C12.2528 31.4561 11.9988 31.853 11.606 32.0341C11.606 32.0341 13.324 37.9998 19.5001 37.9998C25.6759 37.9998 27.394 32.0341 27.394 32.0341C27.0008 31.853 26.7472 31.4561 26.7472 31.0229Z" fill="black"/>
<path d="M19.5 31.1863C24.493 31.1863 28.5547 27.1228 28.5547 22.1278V18.1177H10.4453V22.1278C10.4453 27.1228 14.5073 31.1863 19.5 31.1863Z" fill="black"/>
<path d="M8.09697 15.8901H30.903C31.5179 15.8901 32.0163 15.3914 32.0163 14.7765C32.0163 14.1613 31.5179 13.6626 30.903 13.6626H29.9677V12.5111C29.9677 8.92134 28.1528 5.74849 25.3931 3.86084V8.5601C25.3931 9.17531 24.8948 9.67397 24.2798 9.67397C23.6652 9.67397 23.1666 9.17531 23.1666 8.5601V3.15257C23.1666 3.00443 23.1961 2.86295 23.2489 2.73364C22.416 2.41299 21.5323 2.19585 20.6133 2.09814V9.92619C20.6133 10.5414 20.1146 11.0401 19.5 11.0401C18.8851 11.0401 18.3867 10.5414 18.3867 9.92619V2.09814C17.4677 2.19556 16.5843 2.41299 15.7516 2.73335C15.8041 2.86295 15.8337 3.00414 15.8337 3.15257V8.5601C15.8337 9.17531 15.3353 9.67397 14.7204 9.67397C14.1055 9.67397 13.6071 9.17531 13.6071 8.5601V3.86026C10.8471 5.74791 9.03195 8.92134 9.03195 12.5111V13.6626H8.09668C7.48206 13.6626 6.9834 14.1613 6.9834 14.7765C6.9834 15.3914 7.48206 15.8901 8.09697 15.8901Z" fill="black"/>
<path d="M25.3932 3.15244C25.3932 2.53723 24.8949 2.03857 24.28 2.03857C23.8135 2.03857 23.4143 2.32617 23.249 2.7338C24.0103 3.0269 24.7293 3.4064 25.3932 3.8607V3.15244Z" fill="black"/>
<path d="M14.7207 2.03857C14.1058 2.03857 13.6074 2.53723 13.6074 3.15244V3.86012C14.2713 3.40582 14.9903 3.02632 15.7516 2.73322C15.5861 2.32617 15.1872 2.03857 14.7207 2.03857Z" fill="black"/>
<path d="M20.6133 2.09813V1.11386C20.6133 0.498657 20.1149 0 19.5 0C18.8851 0 18.3867 0.498657 18.3867 1.11386V2.09813C18.7526 2.05899 19.124 2.0387 19.5 2.0387C19.876 2.0387 20.2474 2.05899 20.6133 2.09813Z" fill="black"/>
</g>
<defs>
<clipPath id="clip0_296_23970">
<rect width="38" height="38" fill="white" transform="translate(0.5)"/>
</clipPath>
</defs>
</svg>
