<svg width="33" height="32" viewBox="0 0 33 32" fill="none" xmlns="http://www.w3.org/2000/svg">
<g clip-path="url(#clip0_298_23475)">
<path d="M7.63867 0.00732422L0.5 7.146L5.6521 12.2981L8.04468 9.90527L9.37012 11.2307L6.97754 13.6233L8.29492 14.9409L15.4336 7.80225L7.63867 0.00732422ZM8.15259 7.65942C7.948 7.86401 7.67603 7.97681 7.38696 7.97681C7.0979 7.97681 6.82617 7.86426 6.62158 7.65991C6.19946 7.23755 6.19946 6.55078 6.62158 6.12891C6.82617 5.92432 7.0979 5.81177 7.38696 5.81177C7.67603 5.81177 7.948 5.92432 8.15234 6.12866C8.57446 6.55078 8.57446 7.2373 8.15259 7.65942Z" fill="black"/>
<path d="M17.5518 24.1978L18.8813 25.5273L21.28 23.1287L22.6055 24.4541L20.2068 26.8528L21.5239 28.1699L23.9226 25.7712L25.248 27.0967L22.8494 29.4954L25.3538 31.9998L32.4924 24.8611L24.6907 17.0591L17.5518 24.1978Z" fill="black"/>
<path d="M32.4968 0L22.4512 3.89648L28.6006 10.0457L32.4968 0Z" fill="black"/>
<path d="M2.87695 23.0093L1.35938 24.5266C0.812012 25.0742 0.510254 25.8022 0.510254 26.5767C0.510254 27.3511 0.812012 28.0789 1.35938 28.6267L3.86987 31.1372C4.41748 31.6848 5.14551 31.9863 5.91992 31.9863C6.69434 31.9863 7.42236 31.6848 7.96997 31.1372L9.4873 29.6199L2.87695 23.0093Z" fill="black"/>
<path d="M23.5376 7.63354L20.895 4.99072L4.20215 21.6836L6.84497 24.3262L23.5376 7.63354Z" fill="black"/>
<path d="M24.293 14.814L27.5054 11.6016L24.8628 8.95898L8.16992 25.6519L10.8125 28.2944L24.293 14.814Z" fill="black"/>
</g>
<defs>
<clipPath id="clip0_298_23475">
<rect width="32" height="32" fill="white" transform="translate(0.5)"/>
</clipPath>
</defs>
</svg>
