<svg width="33" height="32" viewBox="0 0 33 32" fill="none" xmlns="http://www.w3.org/2000/svg">
<g clip-path="url(#clip0_298_23480)">
<path d="M32.2498 12.832C32.0239 9.50903 30.6223 6.41577 28.2446 4.03809C25.6406 1.43408 22.1785 0 18.4956 0C17.968 0 17.5405 0.427734 17.5405 0.955322V12.832H32.2498Z" fill="black"/>
<path d="M6.61938 12.832V12.1118C6.61938 9.97363 4.87988 8.23413 2.7417 8.23413H1.76782C1.24023 8.23413 0.8125 8.66187 0.8125 9.18945C0.8125 9.71704 1.24023 10.1445 1.76782 10.1445H2.7417C3.82642 10.1445 4.70898 11.0271 4.70898 12.1118V12.832H6.61938Z" fill="black"/>
<path d="M27.0811 19.7722C28.6135 19.7722 30.0332 20.2627 31.1926 21.0942C32.0203 19.7703 32.4109 18.2905 32.2827 16.8782V14.7424H4.7085V16.9233C4.7085 18.2273 5.01318 19.4612 5.5542 20.5583C6.52466 20.0564 7.62549 19.7722 8.7915 19.7722C12.1143 19.7722 14.9084 22.0769 15.6609 25.1716H20.2117C20.9641 22.0769 23.7583 19.7722 27.0811 19.7722Z" fill="black"/>
<path d="M8.7915 21.6826C5.94702 21.6826 3.63281 23.9966 3.63281 26.8411C3.63281 29.6855 5.94702 31.9998 8.7915 31.9998C11.636 31.9998 13.9502 29.6855 13.9502 26.8411C13.9502 23.9966 11.636 21.6826 8.7915 21.6826ZM8.7915 29.9348C7.08569 29.9348 5.69775 28.5471 5.69775 26.8411C5.69775 25.1353 7.08569 23.7476 8.7915 23.7476C10.4973 23.7476 11.8853 25.1353 11.8853 26.8411C11.8853 28.5471 10.4973 29.9348 8.7915 29.9348Z" fill="black"/>
<path d="M8.79175 25.6582C8.13916 25.6582 7.6084 26.189 7.6084 26.8413C7.6084 27.4939 8.13916 28.0247 8.79175 28.0247C9.44434 28.0247 9.9751 27.4939 9.9751 26.8413C9.9751 26.189 9.44409 25.6582 8.79175 25.6582Z" fill="black"/>
<path d="M32.2402 26.8411C32.2402 23.9966 29.926 21.6826 27.0815 21.6826C24.2371 21.6826 21.9229 23.9966 21.9229 26.8411C21.9229 29.6855 24.2371 31.9998 27.0815 31.9998C29.926 31.9998 32.2402 29.6855 32.2402 26.8411ZM27.0815 29.9348C25.3757 29.9348 23.9878 28.5471 23.9878 26.8411C23.9878 25.1353 25.3757 23.7476 27.0815 23.7476C28.7874 23.7476 30.1753 25.1353 30.1753 26.8411C30.1753 28.5471 28.7874 29.9348 27.0815 29.9348Z" fill="black"/>
<path d="M27.0813 25.6582C26.4287 25.6582 25.8979 26.189 25.8979 26.8413C25.8979 27.4939 26.4287 28.0247 27.0813 28.0247C27.7339 28.0247 28.2646 27.4939 28.2646 26.8413C28.2646 26.189 27.7339 25.6582 27.0813 25.6582Z" fill="black"/>
</g>
<defs>
<clipPath id="clip0_298_23480">
<rect width="32" height="32" fill="white" transform="translate(0.5)"/>
</clipPath>
</defs>
</svg>
