<svg width="33" height="32" viewBox="0 0 33 32" fill="none" xmlns="http://www.w3.org/2000/svg">
<g clip-path="url(#clip0_298_23476)">
<path d="M25.5035 0.96043C25.5035 0.429997 25.0735 0 24.543 0H8.45652C7.92609 0 7.49609 0.429997 7.49609 0.96043V10.6549H25.5035L25.5035 0.96043ZM11.7154 7.83657C11.7154 8.35431 11.2956 8.77406 10.7779 8.77406C10.2601 8.77406 9.84039 8.35431 9.84039 7.83657V5.44196C9.84039 4.92421 10.2601 4.50447 10.7779 4.50447C11.2956 4.50447 11.7154 4.92421 11.7154 5.44196V7.83657Z" fill="black"/>
<path d="M7.49609 28.9162C7.49609 29.4467 7.92609 29.8766 8.45652 29.8766H9.13427V31.0625C9.13427 31.5802 9.55401 31.9999 10.0718 31.9999C10.5895 31.9999 11.0093 31.5802 11.0093 31.0625V29.8766H21.8782V31.0625C21.8782 31.5802 22.298 31.9999 22.8157 31.9999C23.3335 31.9999 23.7532 31.5802 23.7532 31.0625V29.8766H24.543C25.0735 29.8766 25.5035 29.4467 25.5035 28.9162V12.5298H7.49609V28.9162ZM9.84039 15.3801C9.84039 14.8623 10.2601 14.4426 10.7779 14.4426C11.2956 14.4426 11.7154 14.8623 11.7154 15.3801V17.7748C11.7154 18.2926 11.2956 18.7123 10.7779 18.7123C10.2601 18.7123 9.84039 18.2926 9.84039 17.7748V15.3801Z" fill="black"/>
</g>
<defs>
<clipPath id="clip0_298_23476">
<rect width="32" height="32" fill="white" transform="translate(0.5)"/>
</clipPath>
</defs>
</svg>
