<svg width="33" height="32" viewBox="0 0 33 32" fill="none" xmlns="http://www.w3.org/2000/svg">
<path fill-rule="evenodd" clip-rule="evenodd" d="M8.45698 28.9333C9.80765 25.44 13.1997 22.96 17.1663 22.96C21.133 22.96 24.525 25.44 25.8757 28.9333C25.9943 29.24 25.9543 29.5866 25.7677 29.8586C25.581 30.1306 25.273 30.2933 24.9423 30.2933H9.39032C9.06099 30.2933 8.75165 30.1306 8.56498 29.8586C8.37965 29.5866 8.33832 29.24 8.45698 28.9333Z" fill="black"/>
<path fill-rule="evenodd" clip-rule="evenodd" d="M17.476 24.1777C17.356 24.7163 16.8214 25.0563 16.2827 24.9363C15.744 24.8163 15.404 24.2817 15.524 23.743C15.524 23.743 16.436 19.6337 15.5227 15.387C14.936 12.663 13.592 9.86565 10.6627 8.15765C10.1867 7.87899 10.0254 7.26699 10.3027 6.78965C10.5814 6.31365 11.1934 6.15232 11.6707 6.42965C15.1414 8.45499 16.784 11.7377 17.4774 14.9657C18.484 19.647 17.476 24.1777 17.476 24.1777Z" fill="black"/>
<path fill-rule="evenodd" clip-rule="evenodd" d="M17.9067 18.824C17.7974 19.3653 17.2694 19.716 16.7294 19.6067C16.1881 19.4973 15.8374 18.9707 15.9467 18.4293C15.9467 18.4293 16.3654 16.1 19.3974 13.2333C19.7987 12.8547 20.4321 12.872 20.8107 13.2733C21.1907 13.6747 21.1721 14.308 20.7721 14.6867C18.3254 17 17.9067 18.824 17.9067 18.824Z" fill="black"/>
<path fill-rule="evenodd" clip-rule="evenodd" d="M19.5467 15.8013C19.4494 15.5399 19.1134 14.5519 19.0867 13.4066C19.0521 11.9239 19.5187 10.2253 21.3774 9.27326C24.6987 7.57459 28.7894 8.76926 30.5881 10.8413C30.8081 11.0946 30.8867 11.4386 30.7974 11.7613C30.7094 12.0839 30.4667 12.3399 30.1494 12.4466C30.1494 12.4466 28.5121 13.0426 27.3947 15.2773C26.8427 16.3799 25.4334 17.5639 23.9361 17.9733C23.1094 18.1986 22.2654 18.1946 21.5107 17.8906C21.2521 17.7866 21.0001 17.6466 20.7641 17.4666C21.1227 17.0173 21.5641 16.5306 22.1054 16.0199C22.5054 15.6413 22.5241 15.0079 22.1441 14.6066C21.7654 14.2053 21.1321 14.1879 20.7307 14.5666C20.2801 14.9919 19.8881 15.4053 19.5467 15.8013Z" fill="black"/>
<path fill-rule="evenodd" clip-rule="evenodd" d="M12.8652 13.8521C12.3506 14.0828 11.8546 14.1908 11.3852 14.2108C9.94388 14.2708 8.66655 13.4721 7.66122 12.3494C6.69988 11.2748 5.98922 9.92676 5.59322 9.07209C4.72388 7.20143 2.42255 4.65209 2.42255 4.65209C2.20788 4.41342 2.12122 4.08676 2.18922 3.77342C2.25722 3.46009 2.47055 3.19742 2.76388 3.06809C6.67188 1.35342 11.4172 0.901425 15.1252 3.87076C16.8492 5.25209 17.0772 7.00943 16.7079 8.63076C16.2186 10.7801 14.5839 12.6454 14.5839 12.6454C14.5719 12.6588 14.5586 12.6721 14.5466 12.6854C13.6052 10.5094 12.0772 8.50009 9.67055 7.09609C9.19322 6.81876 8.58122 6.98009 8.30255 7.45609C8.02522 7.93342 8.18655 8.54542 8.66255 8.82409C10.7999 10.0708 12.0946 11.8974 12.8652 13.8521Z" fill="black"/>
</svg>
