<svg width="33" height="32" viewBox="0 0 33 32" fill="none" xmlns="http://www.w3.org/2000/svg">
<g clip-path="url(#clip0_296_24502)">
<path d="M16.5091 4.218C23.4841 -1.88266 32.3528 3.47755 32.4982 10.7442C32.5353 12.5961 32.0007 14.4 30.9366 16.0631H24.0393L22.8126 14.0184C22.4563 13.4247 21.5943 13.4056 21.2179 13.9974L18.6295 18.0648L14.8565 10.0997C14.5274 9.40473 13.5468 9.38267 13.1839 10.0566L9.94967 16.0631H2.08164C-3.74679 6.95379 7.77214 -3.42361 16.5091 4.218Z" fill="black"/>
<path d="M11.3349 17.4448L13.9557 12.5776L17.6618 20.4014C17.9771 21.0671 18.9044 21.1249 19.2998 20.5034L21.9852 16.2835L22.7048 17.4827C22.8742 17.7651 23.1793 17.9378 23.5086 17.9378H29.4536C29.2673 18.1328 30.2605 17.1416 17.1703 30.164C16.8047 30.5278 16.2137 30.5278 15.848 30.164C2.95926 17.342 3.7507 18.1325 3.56471 17.9378H10.5096C10.8545 17.9379 11.1714 17.7485 11.3349 17.4448Z" fill="black"/>
</g>
<defs>
<clipPath id="clip0_296_24502">
<rect width="32" height="32" fill="white" transform="matrix(-1 0 0 1 32.5 0)"/>
</clipPath>
</defs>
</svg>
