<svg width="33" height="32" viewBox="0 0 33 32" fill="none" xmlns="http://www.w3.org/2000/svg">
<g clip-path="url(#clip0_298_23465)">
<path d="M11.0898 2.40527C10.8385 2.507 10.6112 2.65062 10.4077 2.83009C10.5573 4.04475 11.1617 5.16367 12.0891 5.90564C12.1489 5.95351 12.2327 5.98343 12.3105 5.98343C12.508 5.98343 12.6695 5.82186 12.6635 5.61845C12.6635 5.51074 12.6156 5.415 12.5378 5.34917C11.6762 4.65507 11.1437 3.56608 11.0898 2.40527Z" fill="black"/>
<path d="M14.3447 8.60449H18.8204V9.44221H14.3447V8.60449Z" fill="black"/>
<path d="M13.7344 0.382812H14.9371V1.14872H13.7344V0.382812Z" fill="black"/>
<path d="M4.38807 3.72776H8.98341C9.40823 2.40538 10.6289 1.51386 12.0171 1.50788H13.0163V0.0239363V0H6.1592C4.79494 0 3.68799 1.10695 3.68799 2.47121V3.72776H4.38807Z" fill="black"/>
<path d="M19.3173 7.88627V4.96631H13.8604V7.88627H13.986H19.1797H19.3173Z" fill="black"/>
<path d="M28.0351 19.8416C27.8796 19.692 27.1795 19.4048 25.9529 19.4048C24.7263 19.4048 24.0262 19.692 23.8706 19.8416C24.0262 19.9912 24.7263 20.2784 25.9529 20.2784C27.1795 20.2784 27.8796 19.9912 28.0351 19.8416Z" fill="black"/>
<path d="M13.0048 27.0933H20.0294V20.0147C20.0294 19.9788 20.0294 19.9429 20.0354 19.907C19.5627 19.2249 18.8327 18.2616 17.7198 16.8913C16.3495 15.2159 14.9674 13.6363 14.5724 13.1875C12.9569 13.2713 11.6824 14.5996 11.6704 16.2212C11.7183 16.5802 12.167 20.2062 12.167 21.4867C12.167 22.5278 11.7243 25.4418 11.6704 25.7829C11.6824 26.5129 12.2747 27.0933 13.0048 27.0933Z" fill="black"/>
<path d="M4.69947 4.4458L4.00537 9.81304H8.73236L8.03826 4.4458H7.45188V8.90955C7.45188 9.10702 7.29031 9.26854 7.09289 9.26854C6.89546 9.26854 6.7339 9.10697 6.7339 8.90955V4.4458H5.89019V8.90955C5.89019 9.10702 5.72862 9.26854 5.5312 9.26854C5.33373 9.26854 5.17221 9.10697 5.17221 8.90955V4.4458H4.69947Z" fill="black"/>
<path d="M22.1472 18.7942C21.519 19.0455 21.0702 19.3507 20.8668 19.6558C20.8548 19.6738 20.8428 19.6917 20.8368 19.7097C20.8308 19.7097 20.8308 19.7097 20.8308 19.7157C20.8249 19.7336 20.8129 19.7456 20.8069 19.7636H20.8009L20.783 19.8174H20.777L20.759 19.8772V19.8892C20.7531 19.9012 20.7531 19.9191 20.7531 19.9311C20.7531 19.9371 20.7471 19.9431 20.7471 19.9491V20.0029C20.7531 20.1346 20.7949 20.2542 20.8668 20.3619C21.0702 20.6671 21.519 20.9722 22.1472 21.2236C22.3866 21.3133 22.6319 21.3971 22.8772 21.4629C23.1046 21.5228 23.338 21.5826 23.5893 21.6245C24.3672 21.7741 25.157 21.8459 25.9528 21.8399C26.9939 21.8399 27.9872 21.7262 28.8368 21.5108L30.9132 20.5176C30.961 20.4697 31.0029 20.4159 31.0388 20.362C31.2004 20.1466 31.2004 19.8594 31.0388 19.644C30.8354 19.3388 30.3866 19.0337 29.7583 18.7823C28.7471 18.3814 27.3948 18.166 25.9528 18.166C25.2527 18.166 24.5526 18.2199 23.8585 18.3276C23.6012 18.3695 23.3559 18.4233 23.1225 18.4772C22.7875 18.5608 22.4644 18.6625 22.1472 18.7942ZM25.9528 18.6865C27.353 18.6865 28.771 19.0395 28.771 19.8413C28.771 20.6431 27.3529 20.9961 25.9528 20.9961C24.5526 20.9961 23.1346 20.6371 23.1346 19.8413C23.1346 19.0455 24.5526 18.6865 25.9528 18.6865Z" fill="black"/>
<path d="M25.9527 22.5699C25.1629 22.5699 24.3671 22.5041 23.5892 22.3724C23.3379 22.3306 23.0926 22.2767 22.8652 22.2169C21.9677 21.9895 21.2377 21.6664 20.7471 21.2715V28.8885C20.7471 29.2834 21.2198 29.7143 22.0276 30.0553L22.1472 30.1032C22.4345 30.2169 22.7336 30.3126 23.0328 30.3844C23.8047 30.5759 24.5945 30.6896 25.3903 30.7135V23.4017C25.3903 23.264 25.4681 23.1384 25.5938 23.0786L26.6948 22.552C26.4494 22.5639 26.2041 22.5699 25.9527 22.5699Z" fill="black"/>
<path d="M26.1084 23.629V32L27.4368 31.3657L31.1585 29.5826V21.2715C30.6679 21.6664 29.9439 21.9895 29.0583 22.2169L26.1084 23.629Z" fill="black"/>
<path d="M21.6146 16.652C21.7104 16.6341 21.7822 16.5503 21.7881 16.4545C21.83 16.0357 21.854 15.6228 21.854 15.216C21.854 14.1868 21.6804 13.2234 21.0522 12.5114C20.4239 11.7994 19.4606 11.4523 18.0843 11.4164C18.0245 11.4105 17.9646 11.4344 17.9228 11.4763C17.8928 11.5062 17.8689 11.5421 17.8569 11.584C17.9886 11.8533 18.6647 12.8585 19.652 14.1868C20.6393 15.5152 21.3753 16.4307 21.6146 16.652Z" fill="black"/>
<path d="M8.79808 28.0271C8.80407 27.9852 9.49218 23.5096 9.49218 22.0436C9.49218 20.2366 8.80407 14.7377 8.79808 14.6778C8.7921 14.6659 8.7921 14.6479 8.7921 14.636C8.7921 13.8521 8.97162 13.0803 9.31266 12.3802L8.85792 10.5312H3.89157L3.30518 13.5649L1.85116 27.8356C1.79132 28.3861 1.97084 28.9366 2.3418 29.3435C2.71276 29.7564 3.23936 29.9897 3.78984 29.9897H9.56394C9.06731 29.4812 8.79204 28.793 8.79204 28.081C8.7921 28.063 8.7921 28.0451 8.79808 28.0271Z" fill="black"/>
<path d="M20.0293 28.8887V27.8116H13.0046C11.8737 27.8056 10.9582 26.8902 10.9523 25.7593C10.9523 25.7413 10.9523 25.7233 10.9582 25.7054C10.9642 25.6755 11.4489 22.5162 11.4489 21.487C11.4489 20.2125 10.9582 16.3292 10.9582 16.2873C10.9523 16.2753 10.9523 16.2574 10.9523 16.2454C10.9582 14.1631 12.6456 12.4758 14.7279 12.4698C14.8296 12.4698 14.9313 12.5117 14.9972 12.5895C15.0151 12.6074 16.6546 14.4563 18.2762 16.4369C19.2096 17.5798 19.8797 18.4534 20.3645 19.1295C20.8611 18.5132 21.8723 18.0166 23.2006 17.7294C23.3622 16.1916 23.5357 14.8274 23.5596 14.6119C23.5417 12.1527 21.5551 10.1721 19.0959 10.1602H13.98C12.3525 10.1602 10.8566 11.0457 10.0727 12.4698C9.86326 12.8467 9.70773 13.2537 9.61797 13.6725C9.54616 13.9836 9.51025 14.2948 9.51025 14.6119C9.57009 15.0547 10.2103 20.2304 10.2103 22.0435C10.2103 23.5154 9.57608 27.686 9.51025 28.1108C9.52222 28.7989 9.88121 29.4391 10.4616 29.8041C10.7249 29.9717 11.0181 30.0734 11.3233 30.1092L11.5507 30.1212H20.7175C20.2746 29.7562 20.0293 29.3374 20.0293 28.8887ZM17.1333 11.6082C17.1393 11.3569 17.247 11.1176 17.4324 10.95C17.6119 10.7765 17.8513 10.6867 18.1026 10.6987C19.6882 10.7406 20.8311 11.1833 21.585 12.039C22.6441 13.2297 22.656 14.8991 22.5064 16.5207C22.4586 17.0054 22.0517 17.3764 21.567 17.3764H21.4773C21.3037 17.3584 21.0884 17.3405 19.0899 14.6479C18.5872 13.9717 18.1205 13.3195 17.7735 12.805C17.1273 11.8415 17.1273 11.7338 17.1333 11.6082Z" fill="black"/>
</g>
<defs>
<clipPath id="clip0_298_23465">
<rect width="32" height="32" fill="white" transform="translate(0.5)"/>
</clipPath>
</defs>
</svg>
