<svg width="33" height="32" viewBox="0 0 33 32" fill="none" xmlns="http://www.w3.org/2000/svg">
<g clip-path="url(#clip0_298_23474)">
<path d="M31.9629 14.5669L27.1131 9.71717V4.11489C27.1131 3.10191 26.2922 2.28098 25.2778 2.28098C24.2657 2.28098 23.4448 3.10191 23.4448 4.11489V6.04891L19.8338 2.43775C18.0484 0.653395 14.9443 0.65656 13.1631 2.44098L1.03688 14.5669C0.321041 15.2842 0.321041 16.4448 1.03688 17.1609C1.75304 17.878 2.91587 17.878 3.63177 17.1609L15.7568 5.03465C16.1518 4.64172 16.848 4.64172 17.2409 5.03349L29.368 17.1609C29.7276 17.5195 30.1965 17.6978 30.6652 17.6978C31.1348 17.6978 31.6044 17.5193 31.9629 17.1609C32.679 16.4448 32.679 15.2842 31.9629 14.5669Z" fill="#16191D"/>
<path d="M17.1372 8.51603C16.7849 8.16393 16.2145 8.16393 15.8632 8.51603L5.19697 19.1791C5.02858 19.3474 4.93311 19.5773 4.93311 19.8171V27.5943C4.93311 29.4193 6.41284 30.899 8.23776 30.899H13.5186V22.7207H19.4806V30.899H24.7616C26.5864 30.899 28.0662 29.4193 28.0662 27.5944V19.8171C28.0662 19.5773 27.9715 19.3474 27.8023 19.1791L17.1372 8.51603Z" fill="#16191D"/>
</g>
<defs>
<clipPath id="clip0_298_23474">
<rect width="32" height="32" fill="white" transform="translate(0.5)"/>
</clipPath>
</defs>
</svg>
