<svg width="33" height="32" viewBox="0 0 33 32" fill="none" xmlns="http://www.w3.org/2000/svg">
<path d="M17.0708 12.8573C17.0708 13.6463 17.7104 14.2858 18.4994 14.2858C19.2883 14.2858 19.9279 13.6463 19.9279 12.8573C19.9279 12.0683 19.2884 11.4287 18.4994 11.4287C17.7107 11.4295 17.0717 12.0686 17.0708 12.8573Z" fill="black"/>
<path d="M20.4995 10.8572C20.5003 11.4881 21.0115 11.9994 21.6424 12.0001C22.2736 12.0001 22.7853 11.4884 22.7853 10.8572C22.7853 10.226 22.2736 9.71436 21.6424 9.71436C21.0112 9.71436 20.4995 10.226 20.4995 10.8572Z" fill="black"/>
<path d="M8.49656 6.88625C8.59193 6.86943 8.68843 6.85968 8.78518 6.85706C9.80975 6.86037 10.6654 7.639 10.7651 8.65868C10.9576 8.60343 11.1565 8.57406 11.3566 8.57131C12.4625 8.57362 13.408 9.36737 13.6018 10.4561C13.8883 10.3456 14.1924 10.2878 14.4995 10.2856C15.2801 10.2883 16.0166 10.6474 16.4995 11.2607C17.1806 10.3804 18.3597 10.0531 19.3972 10.4561C19.591 9.36737 20.5365 8.57362 21.6424 8.57131C21.8426 8.57406 22.0414 8.60343 22.2339 8.65868C22.3336 7.63893 23.1892 6.86037 24.2138 6.85706C24.3106 6.85968 24.4071 6.86943 24.5024 6.88625C24.5023 6.87631 24.4995 6.86706 24.4995 6.85706C24.5014 6.5735 24.5746 6.29493 24.7123 6.04706C24.0047 5.29443 23.3749 4.4725 22.8321 3.59368L22.8086 3.55881V3.55912C22.5009 3.06468 22.2641 2.62306 22.0863 2.26318C21.7693 2.47843 21.425 2.6505 21.0626 2.77493C21.0234 2.79412 20.9821 2.80856 20.9394 2.818C19.4996 3.2485 18.002 3.45443 16.4994 3.42856C14.997 3.45443 13.4996 3.24856 12.0598 2.81818C12.0165 2.80868 11.9746 2.794 11.9347 2.77443C11.5729 2.65012 11.2291 2.47825 10.9126 2.26325C10.7348 2.62312 10.4979 3.06475 10.1902 3.55918V3.55893L10.1668 3.59381C9.62406 4.47268 8.99412 5.29462 8.28662 6.04718C8.42425 6.29512 8.49737 6.57362 8.49937 6.85718C8.4995 6.86706 8.49668 6.87631 8.49656 6.88625Z" fill="black"/>
<path d="M26.214 7.42852C26.5296 7.42852 26.7855 7.17271 26.7855 6.85708C26.7851 6.54164 26.5295 6.28596 26.214 6.28564C25.8985 6.28564 25.6426 6.54146 25.6426 6.85708C25.6426 7.17271 25.8985 7.42852 26.214 7.42852Z" fill="black"/>
<path d="M23.3569 8.85713C23.3574 9.33031 23.7409 9.71375 24.2141 9.71425C24.6874 9.71425 25.0712 9.3305 25.0712 8.85713C25.0712 8.38375 24.6874 8 24.2141 8C23.7407 8 23.3569 8.38375 23.3569 8.85713Z" fill="black"/>
<path d="M16.4995 2.28569C19.812 2.28569 21.5252 1.46619 21.6407 1.14281C21.5251 0.8195 19.812 0 16.4995 0C13.1568 0 11.4431 0.834312 11.3555 1.1515C11.4431 1.45144 13.1568 2.28569 16.4995 2.28569Z" fill="black"/>
<path d="M10.2139 10.8572C10.2139 11.4884 10.7256 12.0001 11.3567 12.0001C11.9879 12.0001 12.4996 11.4884 12.4996 10.8572C12.4996 10.226 11.9879 9.71436 11.3567 9.71436C10.7259 9.71511 10.2146 10.2264 10.2139 10.8572Z" fill="black"/>
<path d="M14.9689 26.9467C15.9607 27.2908 17.0396 27.2907 18.0314 26.9462C28.3963 23.3078 29.9661 11.9437 30.1821 9.5614C29.1577 9.23565 28.1816 8.77409 27.2799 8.18896C26.9789 8.43478 26.6026 8.56978 26.2139 8.5714C26.2039 8.5714 26.1946 8.56859 26.1847 8.56846C26.2015 8.66384 26.2112 8.76034 26.2139 8.85715C26.2126 9.96115 25.3179 10.8558 24.2139 10.8572C24.1171 10.8545 24.0206 10.8448 23.9252 10.828C23.9254 10.838 23.9282 10.8472 23.9282 10.8572C23.9269 12.119 22.9043 13.1415 21.6425 13.1428C21.4423 13.1401 21.2434 13.1107 21.051 13.0555C20.9773 14.1078 20.2634 15.0063 19.255 15.3161C18.2466 15.6258 17.1514 15.283 16.4997 14.4534C15.8479 15.283 14.7528 15.6258 13.7444 15.3161C12.7359 15.0063 12.0221 14.1078 11.9484 13.0555C11.7559 13.1107 11.557 13.1401 11.3569 13.1428C10.0951 13.1415 9.0725 12.1189 9.07118 10.8572C9.07118 10.8472 9.074 10.838 9.07412 10.828C8.97875 10.8448 8.88225 10.8545 8.7855 10.8572C7.6815 10.8558 6.78681 9.96115 6.7855 8.85715C6.78812 8.76034 6.79787 8.66384 6.81462 8.56846C6.80475 8.56865 6.7955 8.5714 6.7855 8.5714C6.39687 8.56972 6.02056 8.43471 5.7195 8.18896C4.81793 8.77403 3.84206 9.23559 2.81787 9.56134C3.03643 11.9445 4.61787 23.313 14.9689 26.9467Z" fill="black"/>
<path d="M20.8555 30.7024C20.9395 31.0059 20.7624 31.3201 20.4593 31.4053C20.1562 31.4904 19.8413 31.3144 19.755 31.0116C19.4259 29.8351 19.4657 28.5859 19.869 27.4326C19.3992 27.6442 18.9175 27.8461 18.4085 28.0247C17.1724 28.4539 15.8278 28.4541 14.5916 28.0253C14.0822 27.8466 13.6001 27.6446 13.13 27.4327C13.5333 28.586 13.573 29.8351 13.244 31.0117C13.1894 31.2089 13.0334 31.3619 12.8351 31.4127C12.6369 31.4635 12.4265 31.4044 12.2837 31.2578C12.1409 31.1112 12.0875 30.8994 12.1435 30.7026C12.2159 30.4437 12.2663 30.1793 12.2939 29.912C9.56492 30.1763 8.38029 30.6232 8.01904 30.8599C8.66354 31.2988 11.5251 31.9999 16.4995 31.9999C21.4739 31.9999 24.3354 31.2988 24.98 30.8598C24.6187 30.6231 23.4338 30.1761 20.704 29.9118C20.7322 30.1791 20.7829 30.4436 20.8555 30.7024Z" fill="black"/>
<path d="M8.78535 9.71425C9.25872 9.71425 9.64247 9.3305 9.64247 8.85712C9.64247 8.38375 9.25872 8 8.78535 8C8.31216 8.0005 7.92872 8.384 7.92822 8.85712C7.92822 9.33044 8.31197 9.71425 8.78535 9.71425Z" fill="black"/>
<path d="M13.0708 12.8573C13.0708 13.6463 13.7104 14.2858 14.4994 14.2858C15.2883 14.2858 15.9279 13.6463 15.9279 12.8573C15.9279 12.0683 15.2884 11.4287 14.4994 11.4287C13.7107 11.4295 13.0717 12.0686 13.0708 12.8573Z" fill="black"/>
<path d="M6.7853 7.42852C7.10087 7.42852 7.35674 7.17271 7.35674 6.85708C7.35674 6.54146 7.10093 6.28564 6.7853 6.28564C6.46987 6.28596 6.21418 6.54164 6.21387 6.85708C6.21387 7.17271 6.46974 7.42852 6.7853 7.42852Z" fill="black"/>
</svg>
