<svg width="39" height="38" viewBox="0 0 39 38" fill="none" xmlns="http://www.w3.org/2000/svg">
<path d="M20.9292 2.8501H16.5337C16.009 2.8501 15.5837 3.27532 15.5837 3.8001V5.23308H12.6653C12.1406 5.23308 11.7153 5.6583 11.7153 6.18308C11.7153 6.70786 12.1406 7.13308 12.6653 7.13308H24.7972C25.322 7.13308 25.7472 6.70786 25.7472 6.18308C25.7472 5.6583 25.322 5.23308 24.7972 5.23308H21.8788V3.8001C21.8792 3.27532 21.454 2.8501 20.9292 2.8501ZM19.9792 5.23308H17.4841V4.7501H19.9792V5.23308Z" fill="black"/>
<path d="M9.50259 8.46142C9.34603 8.7943 9.39543 9.18722 9.62913 9.47108L12.0938 12.459L13.336 23.7541C13.3307 23.7621 11.8096 26.8686 11.8073 26.8739C11.7617 26.9712 11.7328 27.0833 11.7195 27.1874L11.0617 34.1107C11.0367 34.377 11.1248 34.6415 11.3049 34.8395C11.4851 35.0375 11.7404 35.1503 12.0079 35.1503H25.4557C25.7233 35.1503 25.9786 35.0375 26.1588 34.8395C26.3389 34.6415 26.427 34.377 26.402 34.1107L25.7434 27.1871C25.7313 27.0826 25.6997 26.9678 25.6556 26.8736C25.6556 26.8736 24.1303 23.7678 24.1265 23.7534L24.4609 20.6925L26.0858 19.8914C27.3869 19.2496 28.3141 18.0131 28.5653 16.5835L29.5476 10.9953C29.6821 10.2292 29.4727 9.44904 28.9727 8.85358C28.473 8.25812 27.7399 7.9165 26.9625 7.9165H24.7972H10.3622C9.99431 7.9165 9.65953 8.12892 9.50259 8.46142ZM25.6492 9.8165H26.9625C27.2562 9.8165 27.4363 9.97876 27.5176 10.0753C27.5986 10.1718 27.7274 10.377 27.6765 10.6666L26.6942 16.2545C26.5471 17.0897 26.0052 17.8125 25.2452 18.1875L24.7053 18.4539L25.6492 9.8165ZM23.7378 9.8165L23.3175 13.6636C23.1712 13.5857 23.0317 13.4858 22.8664 13.3657C22.3774 13.01 21.7082 12.5232 20.4907 12.5232C19.2735 12.5232 18.604 13.01 18.1153 13.3657C17.7049 13.664 17.4571 13.8445 16.8575 13.8445C16.259 13.8445 16.0112 13.664 15.6008 13.3657C15.2311 13.0967 14.7569 12.7531 14.0208 12.6015L13.9513 11.9696C13.9307 11.786 13.8574 11.612 13.7396 11.4691L12.3765 9.8165H23.7378Z" fill="black"/>
</svg>
