<svg width="33" height="32" viewBox="0 0 33 32" fill="none" xmlns="http://www.w3.org/2000/svg">
<g clip-path="url(#clip0_298_23471)">
<path d="M2.613 19.9438C1.82749 19.9442 1.07155 19.6443 0.5 19.1055L0.5 21.9196C0.5 22.2535 0.632625 22.5736 0.868698 22.8097C1.10477 23.0458 1.42495 23.1784 1.75881 23.1784H17.6784V19.9438H2.613Z" fill="black"/>
<path d="M17.6782 24.1562H12.9445V26.3043C12.9445 26.9881 12.9445 28.5894 9.59547 28.5894H8.58297C8.51828 28.5886 8.4541 28.6008 8.39412 28.625C8.33415 28.6492 8.27958 28.6852 8.23358 28.7306C8.18758 28.7761 8.15106 28.8303 8.12614 28.89C8.10121 28.9497 8.08838 29.0137 8.08838 29.0784C8.08838 29.1431 8.10121 29.2071 8.12614 29.2668C8.15106 29.3265 8.18758 29.3807 8.23358 29.4262C8.27958 29.4717 8.33415 29.5076 8.39412 29.5318C8.4541 29.5561 8.51828 29.5682 8.58297 29.5674H17.7215C17.6929 29.401 17.6784 29.2325 17.6782 29.0636V24.1562Z" fill="black"/>
<path d="M20.6657 4.36886H30.5125C30.956 4.3684 31.3939 4.4673 31.7942 4.65829L31.7977 2.20954C31.798 2.04406 31.7656 1.88014 31.7024 1.72718C31.6393 1.57422 31.5466 1.43521 31.4297 1.31811C31.3127 1.20101 31.1739 1.10811 31.021 1.04472C30.8681 0.981342 30.7043 0.948722 30.5388 0.94873H1.75991C1.59457 0.94873 1.43084 0.981302 1.27808 1.04459C1.12532 1.10787 0.986529 1.20062 0.869622 1.31755C0.752716 1.43448 0.659989 1.5733 0.596736 1.72607C0.533483 1.87884 0.500944 2.04257 0.500977 2.20792V16.8537C0.500968 17.131 0.555592 17.4057 0.66173 17.6619C0.767867 17.9182 0.923439 18.151 1.11956 18.3472C1.31569 18.5433 1.54852 18.6989 1.80477 18.805C2.06102 18.9112 2.33567 18.9658 2.61304 18.9658H17.6784V7.35636C17.6792 6.56431 17.9942 5.80493 18.5543 5.24485C19.1143 4.68477 19.8737 4.36973 20.6657 4.36886Z" fill="black"/>
<path d="M30.5125 5.36865H20.6657C20.1386 5.36865 19.6331 5.57805 19.2603 5.95078C18.8876 6.32351 18.6782 6.82903 18.6782 7.35615V29.0637C18.6782 29.5908 18.8876 30.0963 19.2603 30.469C19.6331 30.8418 20.1386 31.0512 20.6657 31.0512H30.5125C31.0397 31.0512 31.5452 30.8418 31.9179 30.469C32.2906 30.0963 32.5 29.5908 32.5 29.0637V7.35615C32.5 6.82903 32.2906 6.32351 31.9179 5.95078C31.5452 5.57805 31.0397 5.36865 30.5125 5.36865ZM26.2088 29.8052H24.9697C24.8371 29.8052 24.7099 29.7525 24.6161 29.6587C24.5223 29.5649 24.4697 29.4378 24.4697 29.3052C24.4697 29.1725 24.5223 29.0454 24.6161 28.9516C24.7099 28.8578 24.8371 28.8052 24.9697 28.8052H26.2088C26.3414 28.8052 26.4686 28.8578 26.5623 28.9516C26.6561 29.0454 26.7088 29.1725 26.7088 29.3052C26.7088 29.4378 26.6561 29.5649 26.5623 29.6587C26.4686 29.7525 26.3414 29.8052 26.2088 29.8052ZM28.141 7.83778H23.0375C22.9049 7.83778 22.7777 7.7851 22.684 7.69133C22.5902 7.59756 22.5375 7.47039 22.5375 7.33778C22.5375 7.20517 22.5902 7.07799 22.684 6.98422C22.7777 6.89046 22.9049 6.83778 23.0375 6.83778H28.1412C28.2738 6.83778 28.4009 6.89046 28.4947 6.98422C28.5885 7.07799 28.6412 7.20517 28.6412 7.33778C28.6412 7.47039 28.5885 7.59756 28.4947 7.69133C28.4009 7.7851 28.2738 7.83778 28.1412 7.83778H28.141Z" fill="black"/>
</g>
<defs>
<clipPath id="clip0_298_23471">
<rect width="32" height="32" fill="white" transform="translate(0.5)"/>
</clipPath>
</defs>
</svg>
