<svg width="33" height="32" viewBox="0 0 33 32" fill="none" xmlns="http://www.w3.org/2000/svg">
<g clip-path="url(#clip0_296_24497)">
<path d="M31.3694 5.10669C30.4873 3.58244 29.2196 2.30406 27.7035 1.40981C26.1399 0.4875 24.3491 0 22.5246 0C20.7002 0 18.9092 0.4875 17.3457 1.40981C15.8296 2.30412 14.5619 3.5825 13.6798 5.10669C13.4997 5.41788 13.5134 5.8045 13.7151 6.10213L17.747 12.0536C17.7704 12.0519 17.7937 12.05 17.8176 12.05H20.7217L20.1289 10.2714C19.9652 9.78025 20.2307 9.24931 20.7219 9.08556C21.2131 8.92194 21.744 9.18738 21.9077 9.6785L22.5246 11.5292L23.1415 9.6785C23.3052 9.18731 23.8361 8.92181 24.3274 9.08556C24.8186 9.24931 25.084 9.78019 24.9203 10.2714L24.3275 12.05H27.2317C27.2556 12.05 27.2789 12.0518 27.3023 12.0536L31.3342 6.10213C31.5357 5.8045 31.5494 5.41788 31.3694 5.10669Z" fill="black"/>
<path d="M18.5747 30.0582C18.5747 31.1288 19.4457 31.9998 20.5163 31.9998H24.5331C25.6037 31.9998 26.4747 31.1288 26.4747 30.0582V13.9248H18.5747V30.0582Z" fill="black"/>
<path d="M2.5083 11.9165H11.4125V21.0873H2.5083V11.9165Z" fill="black"/>
<path d="M1.50391 30.0583C1.50391 31.1289 2.37491 31.9999 3.44553 31.9999H10.4748C11.5454 31.9999 12.4164 31.1289 12.4164 30.0583V22.9624H1.50391V30.0583Z" fill="black"/>
<path d="M10.4081 1.94159C10.4081 1.00921 9.74277 0.306152 8.86058 0.306152C8.63752 0.306152 8.41189 0.351152 8.19008 0.439965L5.03389 1.7024C4.16639 2.0494 3.51221 3.01565 3.51221 3.94997V10.0417H10.4081V1.94159Z" fill="black"/>

</g>
<defs>
<clipPath id="clip0_296_24497">
<rect width="32" height="32" fill="#388FF3" transform="translate(0.5)"/>
</clipPath>
</defs>
</svg>
