<svg width="33" height="32" viewBox="0 0 33 32" fill="none" xmlns="http://www.w3.org/2000/svg">
<g id="Group">
<g id="Group_2">
<path id="Vector" d="M26.824 24.06L21.716 22.7827L21.2813 21.044C22.648 19.6907 23.584 17.832 23.8613 15.9253C24.6186 15.712 25.2053 15.0626 25.3066 14.248L25.6399 11.5813C25.7106 11.0186 25.5372 10.4493 25.1639 10.0226C24.9452 9.77194 24.6693 9.58263 24.3639 9.46663L24.4866 6.95594L24.9853 6.45594C25.736 5.65725 26.3586 4.28794 25.0573 2.30125C24.0573 0.774688 22.3587 0 20.0067 0C19.0787 0 16.9427 0 14.9534 1.336C9.27331 1.45469 8.5 4.09331 8.5 6.66669C8.5 7.26538 8.64531 8.61337 8.74131 9.42669C8.39862 9.53469 8.088 9.73469 7.84531 10.0107C7.46531 10.4414 7.28931 11.0134 7.36 11.5827L7.69331 14.2494C7.80263 15.1187 8.46263 15.8027 9.29731 15.9654C9.57331 17.7987 10.4613 19.5974 11.7493 20.9281L11.2853 22.7854L6.17731 24.0627C2.83331 24.896 0.5 27.8853 0.5 31.3333C0.5 31.7013 0.798687 32 1.16669 32H31.8334C32.2014 32 32.5001 31.6987 32.5001 31.3307C32.5 27.8853 30.1667 24.896 26.824 24.06Z" fill="black"/>
</g>
</g>
</svg>
