<svg width="33" height="32" viewBox="0 0 33 32" fill="none" xmlns="http://www.w3.org/2000/svg">
<g clip-path="url(#clip0_298_23467)">
<path d="M19.1769 9.49851C19.2969 9.35183 19.4302 9.22189 19.5735 9.1052C16.7656 8.53295 15.1212 9.71826 13.4902 11.5885C16.4983 11.9077 17.1992 11.8693 19.1769 9.49851Z" fill="black"/>
<path d="M27.1399 16.9419C26.3292 16.9419 25.563 17.1282 24.8736 17.4521L23.8901 15.8918C25.7464 14.9319 27.1736 15.3389 28.9267 15.2419C29.5567 15.2419 30.11 14.8886 30.3766 14.3186C30.6433 13.7486 30.5566 13.0953 30.1533 12.6153L24.5466 5.92863C24.0366 5.32194 23.21 5.14531 22.5199 5.45194H22.5166L20.3 4.40525C19.97 4.24863 19.57 4.39194 19.4134 4.72525C19.2567 5.05856 19.4001 5.45525 19.7333 5.61194L21.5733 6.48194C21.3676 7.01656 21.4749 7.70863 21.91 8.19856L23.6767 10.2053C23.7867 10.3286 23.7834 10.5153 23.67 10.6352C23.5633 10.7485 23.3934 10.7686 23.2633 10.6819L22.28 10.0386C21.61 9.59856 20.7167 9.73194 20.2 10.3519C17.77 13.2652 16.54 13.2752 13.0267 12.8752C11.6866 12.7185 10.6034 12.2452 9.80675 11.4652C8.48675 10.1719 6.90344 9.3685 5.23012 9.14525L2.7235 8.81194C1.76706 8.68025 0.906812 9.42925 0.906812 10.4019C0.906812 10.9852 1.22344 11.522 1.7335 11.8053C3.03687 12.5286 7.42681 14.9686 9.08019 16.0253C9.47169 16.2751 9.80044 16.5604 10.0862 16.866L9.0245 17.9873C8.136 17.3333 7.04275 16.9419 5.85681 16.9419C2.90337 16.9419 0.5 19.3453 0.5 22.3019C0.5 25.2553 2.90337 27.6586 5.85669 27.6586C8.81331 27.6586 11.2167 25.2553 11.2167 22.3019C11.2167 21.0112 10.7583 19.8261 9.99612 18.9001L10.879 17.9677C11.7306 19.5585 11.7234 21.4125 11.5933 22.5987C11.4599 23.7851 12.3955 24.8154 13.58 24.8154H17.93C18.82 24.8154 19.6134 24.2154 19.8566 23.3587L20.9533 19.4754C21.2732 18.3413 21.9257 17.3659 22.7829 16.6364L23.7436 18.1605C22.5477 19.1441 21.7833 20.6349 21.7833 22.302C21.7833 25.2553 24.1866 27.6587 27.1399 27.6587C30.0966 27.6587 32.4999 25.2553 32.4999 22.302C32.5 19.3453 30.0966 16.9419 27.1399 16.9419ZM8.5495 22.3007C8.5495 23.7848 7.34219 24.9921 5.85806 24.9921C4.37369 24.9921 3.16631 23.7848 3.16631 22.3007C3.16631 20.8166 4.37362 19.6093 5.85806 19.6093C6.33256 19.6093 6.77806 19.7338 7.16562 19.9502L6.18425 20.9866C6.07925 20.9604 5.97106 20.9426 5.85812 20.9426C5.10906 20.9426 4.49969 21.5518 4.49969 22.3006C4.49969 23.0496 5.10906 23.6587 5.85812 23.6587C6.60681 23.6587 7.21619 23.0495 7.21619 22.3006C7.21619 22.1622 7.18925 22.0311 7.15056 21.9052L8.13262 20.8681C8.39519 21.2836 8.5495 21.7739 8.5495 22.3007ZM27.1416 24.9921C25.6575 24.9921 24.4501 23.7848 24.4501 22.3007C24.4501 21.5854 24.7324 20.9363 25.1891 20.4537L25.9506 21.6618C25.8474 21.8531 25.7834 22.0685 25.7834 22.3007C25.7834 23.0495 26.3928 23.6588 27.1415 23.6588C27.8902 23.6588 28.4996 23.0496 28.4996 22.3007C28.4996 21.5518 27.8902 20.9426 27.1415 20.9426C27.1197 20.9426 27.0993 20.9481 27.0777 20.9491L26.3157 19.7401C26.5761 19.6559 26.8534 19.6093 27.1415 19.6093C28.6256 19.6093 29.8329 20.8166 29.8329 22.3007C29.833 23.7848 28.6256 24.9921 27.1416 24.9921Z" fill="black"/>
</g>
<defs>
<clipPath id="clip0_298_23467">
<rect width="32" height="32" fill="white" transform="translate(0.5)"/>
</clipPath>
</defs>
</svg>
