<svg width="33" height="32" viewBox="0 0 33 32" fill="none" xmlns="http://www.w3.org/2000/svg">
<g clip-path="url(#clip0_298_23469)">
<path fill-rule="evenodd" clip-rule="evenodd" d="M29.0577 23.4786H7.43639C7.31583 23.4786 7.20276 23.4205 7.13226 23.323L2.44118 16.8192C1.55505 15.5907 2.46406 13.8872 3.93894 13.8872C4.53482 13.8872 5.09694 14.1737 5.44307 14.6535L9.13833 19.7764H29.0575C30.078 19.7764 30.9081 20.6067 30.9081 21.6272C30.9081 22.6478 30.0784 23.4788 29.0578 23.4788L29.0577 23.4786Z" fill="black"/>
<path fill-rule="evenodd" clip-rule="evenodd" d="M27.6799 25.5197H8.98584C8.77884 25.5197 8.61084 25.3515 8.61084 25.1447V23.103C8.61084 22.896 8.77884 22.728 8.98584 22.728H27.6799C27.8869 22.728 28.0549 22.8962 28.0549 23.103V25.1447C28.0549 25.3515 27.8869 25.5197 27.6799 25.5197Z" fill="black"/>
<path fill-rule="evenodd" clip-rule="evenodd" d="M10.2473 32C9.34388 32 8.85394 31.105 9.25538 29.7247L10.6181 25.0401C10.7535 24.5746 11.4508 24.7686 11.3447 25.2246H12.6308L12.6844 25.0403C12.8222 24.5661 13.5426 24.776 13.4046 25.25L13.072 26.3931H23.5939C23.3815 25.6626 23.0082 24.9333 23.5165 24.7851C23.8759 24.6803 23.9731 25.0118 24.0314 25.2123H25.3178C25.2276 24.7651 25.9129 24.5787 26.047 25.0401L27.4098 29.7247C28.2256 32.5293 25.4024 32.6124 24.8348 30.6607L24.2764 28.7422H12.3883L11.8303 30.6607C11.6138 31.4043 10.9663 32.0002 10.2471 32.0002L10.2473 32Z" fill="black"/>
<path fill-rule="evenodd" clip-rule="evenodd" d="M8.88697 12.8706C8.46622 12.8706 8.46829 12.3186 8.35953 11.7766C8.07978 10.3827 8.1051 9.02855 8.38185 7.7648C10.6769 7.10573 12.2286 7.32473 13.0579 7.35023C13.1087 9.22093 13.3936 10.4704 13.7509 12.2785C13.0161 12.1581 11.5791 11.8437 9.11029 12.8129L8.88697 12.8706ZM8.60479 6.93004C9.54604 3.95797 11.9082 1.58965 14.9299 0.559142C13.7826 1.62827 13.1097 3.83309 13.0549 6.50423C11.6843 6.29648 9.82092 6.62423 8.60479 6.93023V6.93004ZM17.5806 0.0264522C20.8433 -0.200986 23.8585 1.07721 25.8524 3.41253C24.5573 3.6004 22.7047 4.01441 21.5615 4.70553C20.782 2.91678 19.2044 0.630767 17.5808 0.0262647L17.5806 0.0264522ZM26.3857 4.09766C27.1552 5.18422 27.7105 6.44685 27.9894 7.83567C28.1165 8.4683 28.3852 9.06661 27.6965 9.08124C24.9185 9.14068 23.7672 10.0562 23.1535 10.4267C22.8014 8.67174 22.4423 7.01254 21.8748 5.48479C22.6321 5.15347 24.0608 4.35903 26.3857 4.09784V4.09766ZM22.409 10.5284C19.6608 10.1447 16.8663 10.7097 14.4882 12.1412C14.1237 10.297 13.8392 9.06493 13.8126 7.14286C14.4081 6.69585 17.0123 4.97722 21.1154 5.59091C21.7004 7.11211 22.0572 8.77542 22.409 10.5284ZM13.8242 6.21998C13.9437 3.24678 14.8527 0.932456 16.2979 0.64258C18.0983 0.281078 19.9608 3.0064 20.7788 4.78991C17.2891 4.38753 14.8979 5.53691 13.8242 6.21998Z" fill="black"/>
<path fill-rule="evenodd" clip-rule="evenodd" d="M21.272 20.5268C20.7778 20.5268 20.0008 20.5268 19.2322 20.5268C19.0573 20.5268 18.9009 20.4036 18.8651 20.2255L16.9364 10.6184C16.8789 10.3315 19.5995 9.91185 19.6327 10.0776L21.6403 20.078C21.6868 20.3095 21.5079 20.5268 21.272 20.5268Z" fill="black"/>
</g>
<defs>
<clipPath id="clip0_298_23469">
<rect width="32" height="32" fill="white" transform="translate(0.5)"/>
</clipPath>
</defs>
</svg>
