<svg width="33" height="32" viewBox="0 0 33 32" fill="none" xmlns="http://www.w3.org/2000/svg">
<g clip-path="url(#clip0_312_33804)">
<g clip-path="url(#clip1_312_33804)">
<path d="M23.1999 4.8H20.7999V2.4C20.7984 1.0752 19.725 0.0015 18.3999 0H13.5999C12.2751 0.0015 11.2014 1.0752 11.1999 2.4V4.8H8.79989C6.59182 4.80232 4.8024 6.59174 4.8 8.79989V13.5999C4.8015 14.925 5.8752 15.9984 7.19999 15.9999H11.1999V15.2001C11.1999 14.7583 11.5582 14.4 12 14.4C12.4418 14.4 12.8001 14.7583 12.8001 15.2001V15.9999H19.2V15.2001C19.2 14.7583 19.5583 14.4 20.0001 14.4C20.4419 14.4 20.7999 14.7583 20.7999 15.2001V15.9999H24.8001C26.1249 15.9984 27.1986 14.925 27.2001 13.5999V8.79989C27.1978 6.59182 25.4083 4.8024 23.1999 4.8ZM19.2 4.8H12.8001V2.4C12.8007 1.95847 13.1584 1.6005 13.5999 1.5999H18.3999C18.8416 1.6005 19.1994 1.95847 19.2 2.4V4.8ZM29.6001 19.2H28.8V27.9999C28.7918 28.2435 28.7672 28.4862 28.7265 28.7265C30.6208 28.3764 31.9963 26.7261 32.0001 24.8001V21.6C31.9986 20.2752 30.9249 19.2015 29.6001 19.2ZM3.2001 19.2H2.4C1.0752 19.2015 0.0015 20.2752 0 21.6V24.8001C0.003525 26.7261 1.37925 28.3764 3.27337 28.7265C3.23285 28.4862 3.20837 28.2434 3.2001 27.9999V19.2ZM20.7999 17.6001V20.0001C20.7999 20.4418 20.4419 20.7999 20.0001 20.7999C19.5583 20.7999 19.2 20.4419 19.2 20.0001V17.6001H12.8001V20.0001C12.8001 20.4418 12.4418 20.7999 12 20.7999C11.5582 20.7999 11.1999 20.4419 11.1999 20.0001V17.6001H7.19999C6.3317 17.5971 5.48844 17.3089 4.8 16.7797V27.9999C4.80232 30.2083 6.59174 31.9978 8.79989 32.0001H23.1999C25.4083 31.9978 27.1978 30.2083 27.2001 27.9999V16.7797C26.5116 17.3088 25.6684 17.5971 24.8001 17.6001H20.7999Z" fill="black"/>
</g>
</g>
<defs>
<clipPath id="clip0_312_33804">
<rect width="32" height="32" fill="white" transform="translate(0.5)"/>
</clipPath>
<clipPath id="clip1_312_33804">
<rect width="32" height="32" fill="white"/>
</clipPath>
</defs>
</svg>
