<svg width="32" height="32" viewBox="0 0 32 32" fill="none" xmlns="http://www.w3.org/2000/svg">
<g id="column-horizontal-01">
<g id="Vector">
<path d="M28.8002 25.9548C28.8002 27.5257 27.5441 28.7992 25.9947 28.7992L6.00567 28.7992C4.45625 28.7992 3.2002 27.5257 3.2002 25.9548L3.2002 21.6881C3.2002 20.1172 4.45625 18.8437 6.00567 18.8437L25.9947 18.8437C27.5441 18.8437 28.8002 20.1172 28.8002 21.6881V25.9548Z" stroke="#388FF3" stroke-width="2.5" stroke-linecap="round" stroke-linejoin="round"/>
<path d="M28.8002 6.04366C28.8002 4.47272 27.5441 3.19922 25.9947 3.19922L6.00567 3.19922C4.45625 3.19922 3.2002 4.47272 3.2002 6.04366L3.2002 10.3103C3.2002 11.8813 4.45625 13.1548 6.00568 13.1548H25.9947C27.5441 13.1548 28.8002 11.8813 28.8002 10.3103V6.04366Z" stroke="#388FF3" stroke-width="2.5" stroke-linecap="round" stroke-linejoin="round"/>
</g>
</g>
</svg>
