<svg width="24" height="24" viewBox="0 0 24 24" fill="none" xmlns="http://www.w3.org/2000/svg">
<g id="download">
<path id="Icon" d="M7.62856 16.1012H4.5551C2.60745 16.1012 1.02856 14.7729 1.02856 12.8253C1.02856 10.8776 2.60745 9.29873 4.5551 9.29873C4.68754 9.29873 4.81828 9.30603 4.94693 9.32025V9.29873H4.99544C4.96342 9.042 4.94693 8.78045 4.94693 8.51505C4.94693 5.05257 7.75383 2.24567 11.2163 2.24567C13.561 2.24567 15.6051 3.5328 16.6805 5.43904C16.9433 5.40038 17.2122 5.38036 17.4857 5.38036C20.5154 5.38036 22.9714 7.8364 22.9714 10.8661C22.9714 13.6297 20.9278 15.6654 18.2694 16.0457H15.4286M11.6082 9.69056V21.7544M11.6082 21.7544L8.82856 19.0457M11.6082 21.7544L14.3143 19.0457" stroke="black" stroke-width="2" stroke-linecap="round" stroke-linejoin="round"/>
</g>
</svg>
