<svg width="32" height="32" viewBox="0 0 32 32" fill="none" xmlns="http://www.w3.org/2000/svg">
<g id="grid-01">
<g id="Vector">
<path d="M25.9557 3.19922C27.5267 3.19922 28.8002 4.45528 28.8002 6.0047L28.8002 10.7938C28.8002 12.3432 27.5267 13.5993 25.9558 13.5993H21.6891C20.1181 13.5993 18.8446 12.3432 18.8446 10.7938L18.8446 6.0047C18.8446 4.45527 20.1181 3.19922 21.6891 3.19922L25.9557 3.19922Z" stroke="#B8BBBD" stroke-width="2.5" stroke-linecap="round" stroke-linejoin="round"/>
<path d="M6.04464 3.19922C4.47369 3.19922 3.20019 4.45528 3.20019 6.0047L3.20021 10.7938C3.20021 12.3432 4.47371 13.5993 6.04465 13.5993H10.3113C11.8823 13.5993 13.1558 12.3432 13.1558 10.7938L13.1557 6.0047C13.1557 4.45527 11.8822 3.19922 10.3113 3.19922L6.04464 3.19922Z" stroke="#B8BBBD" stroke-width="2.5" stroke-linecap="round" stroke-linejoin="round"/>
<path d="M25.9558 18.3993C27.5267 18.3993 28.8002 19.6553 28.8002 21.2048V25.9938C28.8002 27.5432 27.5267 28.7993 25.9558 28.7993H21.6891C20.1182 28.7993 18.8447 27.5432 18.8447 25.9938L18.8446 21.2048C18.8446 19.6553 20.1182 18.3993 21.6891 18.3993H25.9558Z" stroke="#B8BBBD" stroke-width="2.5" stroke-linecap="round" stroke-linejoin="round"/>
<path d="M6.04465 18.3993C4.47371 18.3993 3.20021 19.6553 3.20021 21.2048L3.20021 25.9938C3.20021 27.5432 4.47371 28.7993 6.04465 28.7993H10.3113C11.8823 28.7993 13.1558 27.5432 13.1558 25.9938L13.1558 21.2048C13.1558 19.6553 11.8823 18.3993 10.3113 18.3993H6.04465Z" stroke="#B8BBBD" stroke-width="2.5" stroke-linecap="round" stroke-linejoin="round"/>
</g>
</g>
</svg>
